<svg xmlns="http://www.w3.org/2000/svg" fill="none" viewBox="0.5 0.27 108.73 22.35">
<path d="M14.85 0.675V4H9.625V18H5.725V4H0.5V0.675H14.85ZM31.6064 14.7H34.6064V22.625H30.8564V18H17.3564V0.675H21.2564V14.7H27.7064V0.675H31.6064V14.7ZM46.3883 9.325C46.3883 10.175 46.4883 10.9417 46.6883 11.625C46.9049 12.3083 47.2049 12.9 47.5883 13.4C47.9883 13.8833 48.4716 14.2583 49.0383 14.525C49.6049 14.7917 50.2549 14.925 50.9883 14.925C51.7049 14.925 52.3466 14.7917 52.9133 14.525C53.4966 14.2583 53.9799 13.8833 54.3633 13.4C54.7633 12.9 55.0633 12.3083 55.2633 11.625C55.4799 10.9417 55.5883 10.175 55.5883 9.325C55.5883 8.475 55.4799 7.70833 55.2633 7.025C55.0633 6.325 54.7633 5.73333 54.3633 5.25C53.9799 4.75 53.4966 4.36667 52.9133 4.1C52.3466 3.83333 51.7049 3.7 50.9883 3.7C50.2549 3.7 49.6049 3.84167 49.0383 4.125C48.4716 4.39167 47.9883 4.775 47.5883 5.275C47.2049 5.75833 46.9049 6.35 46.6883 7.05C46.4883 7.73333 46.3883 8.49167 46.3883 9.325ZM59.6133 9.325C59.6133 10.8083 59.3883 12.1167 58.9383 13.25C58.5049 14.3667 57.9049 15.3083 57.1383 16.075C56.3716 16.825 55.4549 17.3917 54.3883 17.775C53.3383 18.1583 52.2049 18.35 50.9883 18.35C49.8049 18.35 48.6883 18.1583 47.6383 17.775C46.5883 17.3917 45.6716 16.825 44.8883 16.075C44.1049 15.3083 43.4883 14.3667 43.0383 13.25C42.5883 12.1167 42.3633 10.8083 42.3633 9.325C42.3633 7.84167 42.5966 6.54167 43.0633 5.425C43.5299 4.29167 44.1549 3.34167 44.9383 2.575C45.7383 1.80833 46.6549 1.23333 47.6883 0.849999C48.7383 0.466665 49.8383 0.274999 50.9883 0.274999C52.1716 0.274999 53.2883 0.466665 54.3383 0.849999C55.3883 1.23333 56.3049 1.80833 57.0883 2.575C57.8716 3.34167 58.4883 4.29167 58.9383 5.425C59.3883 6.54167 59.6133 7.84167 59.6133 9.325ZM68.0643 0.474999C70.6476 0.474999 72.6309 0.933333 74.0143 1.85C75.3976 2.75 76.0893 4.23333 76.0893 6.3C76.0893 8.38333 75.3893 9.89167 73.9893 10.825C72.5893 11.7417 70.5893 12.2 67.9893 12.2H66.7643V18H62.8643V0.924999C63.7143 0.758333 64.6143 0.641666 65.5643 0.574999C66.5143 0.508333 67.3476 0.474999 68.0643 0.474999ZM68.3143 3.8C68.0309 3.8 67.7476 3.80833 67.4643 3.825C67.1976 3.84167 66.9643 3.85833 66.7643 3.875V8.875H67.9893C69.3393 8.875 70.3559 8.69167 71.0393 8.325C71.7226 7.95833 72.0643 7.275 72.0643 6.275C72.0643 5.79167 71.9726 5.39167 71.7893 5.075C71.6226 4.75833 71.3726 4.50833 71.0393 4.325C70.7226 4.125 70.3309 3.99167 69.8643 3.925C69.3976 3.84167 68.8809 3.8 68.3143 3.8ZM78.9531 18V0.675H90.6531V3.95H82.8531V7.35H89.7781V10.55H82.8531V14.725H91.2281V18H78.9531ZM104.553 18C104.069 17.0333 103.536 16.0583 102.953 15.075C102.386 14.075 101.728 13.0583 100.978 12.025C100.744 12.325 100.444 12.7417 100.078 13.275C99.7275 13.8083 99.3692 14.375 99.0025 14.975C98.6525 15.575 98.3192 16.15 98.0025 16.7C97.6859 17.25 97.4525 17.6833 97.3025 18H92.8525C93.5859 16.65 94.4359 15.2333 95.4025 13.75C96.3859 12.2667 97.4775 10.6917 98.6775 9.025L93.1025 0.675H97.8275L101.203 6.075L104.503 0.675H108.953L103.453 9.075C104.853 10.8917 106.028 12.575 106.978 14.125C107.928 15.6583 108.678 16.95 109.228 18H104.553Z" fill="#FF7A00"/>
</svg>