<svg xmlns="http://www.w3.org/2000/svg" fill="none" viewBox="0.04 0.5 15.92 12">
<path d="M13.8043 8.18975C13.7275 7.6895 13.3155 7.2995 12.7851 7.18325C10.7235 6.73025 10.2067 5.61725 10.1195 4.38275C9.75393 4.319 9.10353 4.25 7.99953 4.25C6.89553 4.25 6.24513 4.319 5.87953 4.38275C5.79233 5.61725 5.27553 6.73025 3.21393 7.18325C2.68353 7.30025 2.27153 7.6895 2.19473 8.18975L1.79713 10.7712C1.65713 11.6803 2.36913 12.5 3.35953 12.5H12.6395C13.6291 12.5 14.3419 11.6803 14.2019 10.7712L13.8043 8.18975ZM7.99953 10.619C6.88353 10.619 5.97873 9.779 5.97873 8.744C5.97873 7.709 6.88353 6.869 7.99953 6.869C9.11553 6.869 10.0203 7.709 10.0203 8.744C10.0203 9.779 9.11473 10.619 7.99953 10.619ZM15.9595 3.5C15.9403 2.375 12.8859 0.50075 7.99953 0.5C3.11233 0.50075 0.0579346 2.375 0.0395346 3.5C0.0211346 4.625 0.0563347 6.089 2.06753 5.84525C4.42033 5.5595 4.27553 4.78925 4.27553 3.68825C4.27553 2.92025 6.18913 2.735 7.99953 2.735C9.80993 2.735 11.7227 2.92025 11.7235 3.68825C11.7235 4.78925 11.5787 5.5595 13.9315 5.84525C15.9419 6.089 15.9779 4.625 15.9595 3.5Z" fill="url(#paint0_linear_273_1822)"/>
<defs>
<linearGradient id="paint0_linear_273_1822" x1="0.0371094" y1="6.5" x2="15.9619" y2="6.5" gradientUnits="userSpaceOnUse">
<stop stop-color="#854E2C"/>
<stop offset="1" stop-color="#AB4B10"/>
</linearGradient>
</defs>
</svg>