<?xml version="1.0" encoding="utf-8"?><svg viewBox="0 0 62 121" xmlns="http://www.w3.org/2000/svg" xmlns:xlink="http://www.w3.org/1999/xlink"><style>:root>svg{display:none}:root>svg:target{display:block}</style><svg fill="none" viewBox="0 0 16 15" id="phone-icon" xmlns="http://www.w3.org/2000/svg"><path d="M13.804 9.19c-.077-.5-.489-.89-1.019-1.007-2.062-.453-2.578-1.566-2.665-2.8C9.754 5.319 9.104 5.25 8 5.25s-1.755.069-2.12.133c-.088 1.234-.604 2.347-2.666 2.8-.53.117-.942.507-1.02 1.007l-.397 2.581c-.14.91.572 1.729 1.563 1.729h9.28c.99 0 1.702-.82 1.562-1.729l-.398-2.581zM8 11.619c-1.116 0-2.021-.84-2.021-1.875 0-1.035.905-1.875 2.02-1.875 1.117 0 2.021.84 2.021 1.875 0 1.035-.905 1.875-2.02 1.875zM15.96 4.5c-.02-1.125-3.074-3-7.96-3-4.888 0-7.942 1.875-7.96 3-.02 1.125.016 2.589 2.028 2.345C4.42 6.56 4.276 5.79 4.276 4.688c0-.768 1.913-.953 3.724-.953 1.81 0 3.723.185 3.723.953 0 1.101-.144 1.872 2.208 2.157 2.01.244 2.047-1.22 2.029-2.345z" fill="#000"/></svg><svg fill="none" viewBox="1.25 1.75 15.5 15.5" id="search-icon" xmlns="http://www.w3.org/2000/svg"><path d="M8.25 14.75a6 6 0 100-12 6 6 0 000 12zm7.5 1.5l-3.262-3.262" stroke="#2B2D2F" stroke-width="2" stroke-linecap="round" stroke-linejoin="round"/></svg><svg fill="none" viewBox="0 0.27 62 29.46" id="shops-hover-arrow-icon" xmlns="http://www.w3.org/2000/svg"><path d="M61.414 16.414a2 2 0 000-2.828L48.686.858a2 2 0 10-2.828 2.828L57.172 15 45.858 26.314a2 2 0 102.828 2.828l12.728-12.728zM0 17h60v-4H0v4z" fill="#fff"/></svg><svg fill="none" viewBox="0 0 55 121" id="shops-item-slider-arrow-icon" xmlns="http://www.w3.org/2000/svg"><path d="M5.404 12.43C2.962 6.504 7.318 0 13.724 0H46a9 9 0 019 9v103a9 9 0 01-9 9H13.425c-6.326 0-10.678-6.356-8.39-12.255l9.444-24.349a69 69 0 00-.535-51.244l-8.54-20.723z" fill="#fff"/><path d="M27.105 45l13.948 13-13.948 13" stroke="url(#da)" stroke-width="2" stroke-linecap="round" stroke-linejoin="round"/><defs><linearGradient id="da" x1="41.053" y1="58" x2="27.105" y2="58" gradientUnits="userSpaceOnUse"><stop stop-color="#854E2C"/><stop offset="1" stop-color="#AB4B10"/></linearGradient></defs></svg><svg fill="none" viewBox="0 0 23 22" id="socials-vk-icon" xmlns="http://www.w3.org/2000/svg"><path d="M11.5 22C17.851 22 23 17.075 23 11S17.851 0 11.5 0 0 4.925 0 11s5.149 11 11.5 11z" fill="#fff"/><path fill-rule="evenodd" clip-rule="evenodd" d="M11.066 15.825h.902s.273-.03.412-.173c.128-.131.124-.379.124-.379s-.018-1.158.545-1.329c.554-.168 1.265 1.12 2.02 1.615.57.375 1.003.292 1.003.292l2.017-.027s1.055-.062.554-.855c-.04-.065-.291-.587-1.5-1.66-1.264-1.122-1.094-.94.429-2.882.928-1.183 1.298-1.905 1.183-2.214-.11-.295-.793-.217-.793-.217l-2.27.014s-.169-.022-.294.05a.613.613 0 00-.2.232s-.36.915-.839 1.694c-1.011 1.642-1.415 1.729-1.58 1.627-.385-.238-.289-.955-.289-1.465 0-1.591.252-2.255-.491-2.426-.247-.057-.429-.095-1.06-.101-.81-.008-1.496.002-1.884.184-.258.121-.458.39-.336.406.15.02.49.088.67.323.233.302.224.982.224.982s.134 1.874-.312 2.107c-.306.16-.726-.167-1.627-1.657a13.587 13.587 0 01-.81-1.606s-.068-.158-.188-.242a.967.967 0 00-.349-.135l-2.157.014s-.324.008-.443.143c-.106.12-.009.368-.009.368s1.69 3.78 3.602 5.685c1.754 1.746 3.745 1.632 3.745 1.632z" fill="#F47436"/></svg><svg fill="none" viewBox="0 0 16 15" id="time-icon" xmlns="http://www.w3.org/2000/svg"><g clip-path="url(#fa)"><path d="M8 .015c-4.411 0-8 3.365-8 7.5 0 4.136 3.589 7.47 8 7.47s8-3.334 8-7.47c0-4.135-3.589-7.5-8-7.5zm.533 7.72c0 .276-.239.5-.533.5H3.733c-.294 0-.533-.224-.533-.5s.239-.5.533-.5h3.734v-5.5c0-.276.239-.5.533-.5.294 0 .533.224.533.5v6z" fill="#000"/></g><defs><clipPath id="fa"><path fill="#fff" d="M0 0h16v15H0z"/></clipPath></defs></svg></svg>