<svg xmlns="http://www.w3.org/2000/svg" fill="none" viewBox="0 0.96 89.01 43.85"><path fill-rule="evenodd" clip-rule="evenodd" d="M40.44 44.803c-2.609-7.002-5.514-21.737 1.818-24.836 10.486-4.432 10.498 18.625-3.091 8.951.625 3.551 3.815 4.825 8.154 4.295 8.883-1.173 7.882-16.617-3.376-16.154-12.93.53-10.355 24.871-3.504 27.744Z" fill="#74271D"/><path fill-rule="evenodd" clip-rule="evenodd" d="M70.165 28.781c-1.978.957-1.625 1.125-3.893 2.08-7.625 2.351-10.922-5.584-7.101-9.536 6.486-6.71 14.22 4.67 3.185 5.148l-2.846.46c3.927 2.316 11.538 1.008 10.694-5.088-.713-5.15-8.052-6.293-11.862-3.083-3.873 3.261-4.258 9.822-.213 12.924 4.012 3.077 11.34 1.861 12.036-2.905ZM23.053 2.433c3.532 1.315 6.747 4.078 8.767 7.25 1.674 2.63 2.62 5.667 2.426 8.806-.824 13.246-12.05 17.96-23.652 17.678l-1.011-.024-.661-.77C4.892 30.683.525 24.93.062 18.513-.336 13.024 1.147 7.523 5.633 4.043c5.001-3.88 11.731-3.73 17.42-1.61l-.001-.001Z" fill="#74271D"/><path fill-rule="evenodd" clip-rule="evenodd" d="M22.26 4.58c4.943 1.842 10.1 7.482 9.71 13.766-.944 15.153-16.762 15.64-21.321 15.531-2.682-3.12-7.855-9.189-8.313-15.531C1.436 5.893 11.33.509 22.26 4.58Z" fill="#E84F22"/><path fill-rule="evenodd" clip-rule="evenodd" d="M10.938 5.12c1.517 4.65 14.673 10.684 19.25 9.1-2.829-7.433-12.728-11.293-19.25-9.1Z" fill="#FFCBA1"/><path fill-rule="evenodd" clip-rule="evenodd" d="m80.574 27.822-.032.05c-.176.268-.351.538-.527.808-.147.223-.296.447-.448.668-.11.159-.219.32-.344.467-.703.82-1.422 1.626-2.281 2.284-.948.728-2.02 1.235-3.232 1.265a4.265 4.265 0 0 1-.435-.015 3.404 3.404 0 0 1-.331-.036c-.104-.02-.247-.053-.258-.183-.005-.063.03-.118.081-.151a17.614 17.614 0 0 0 4.593-4.342 20.69 20.69 0 0 0 1.276-1.973c.257-.449.496-.906.742-1.362-.245-.454-.484-.912-.742-1.362-.39-.68-.811-1.34-1.276-1.972a17.636 17.636 0 0 0-4.593-4.342.165.165 0 0 1-.08-.151c.01-.13.153-.164.257-.183a5.275 5.275 0 0 1 .767-.05c1.21.027 2.281.534 3.23 1.264.858.658 1.58 1.466 2.282 2.284.125.146.235.308.344.466.153.222.3.445.448.67l.527.808c.01.016.022.032.032.05l.032-.05c.177-.27.351-.54.528-.809.147-.224.295-.447.447-.669.11-.158.22-.32.345-.466.702-.82 1.422-1.626 2.28-2.284.948-.729 2.02-1.235 3.232-1.265.146-.004.291.004.435.015.111.008.222.017.331.036.105.019.248.052.258.183a.167.167 0 0 1-.081.151 17.618 17.618 0 0 0-4.593 4.342 20.678 20.678 0 0 0-1.276 1.972c-.257.45-.496.907-.741 1.362.244.455.483.913.74 1.363.39.68.813 1.34 1.277 1.972a17.639 17.639 0 0 0 4.593 4.342.165.165 0 0 1 .081.151c-.01.13-.153.164-.258.183a5.232 5.232 0 0 1-.766.051c-1.211-.029-2.282-.535-3.232-1.265-.857-.658-1.578-1.466-2.28-2.284-.126-.146-.235-.308-.345-.467-.152-.22-.3-.445-.447-.668l-.528-.809a1.648 1.648 0 0 1-.032-.05Z" fill="#74271D"/><path d="M37.773 9.352v.524h1.125v3.1h.65v-3.1h1.127v-.524h-2.902ZM42.682 9.27c-1 0-1.791.712-1.791 1.925 0 1.146.753 1.865 1.73 1.865.874 0 1.798-.585 1.798-1.925 0-1.109-.701-1.865-1.739-1.865h.002Zm-.015.495c.776 0 1.082.778 1.082 1.393 0 .816-.47 1.407-1.097 1.407-.64 0-1.096-.6-1.096-1.393 0-.689.335-1.407 1.11-1.407ZM45.248 14.46h.65v-1.97h.014c.216.36.634.57 1.11.57.852 0 1.642-.644 1.642-1.948 0-1.1-.657-1.842-1.529-1.842-.589 0-1.015.263-1.283.704h-.015l-.03-.622h-.588c.014.344.03.718.03 1.183v3.924Zm.65-3.581c0-.09.022-.188.044-.27.127-.495.545-.816.993-.816.694 0 1.075.622 1.075 1.348 0 .832-.404 1.401-1.097 1.401-.47 0-.865-.315-.984-.77a1.498 1.498 0 0 1-.03-.27v-.622l-.002-.001ZM49.477 9.352v3.625h.65V9.884h1.567v-.532h-2.217ZM53.745 9.27c-1 0-1.79.712-1.79 1.925 0 1.146.753 1.865 1.73 1.865.873 0 1.797-.585 1.797-1.925 0-1.109-.7-1.865-1.738-1.865h.001Zm-.015.495c.776 0 1.082.778 1.082 1.393 0 .816-.47 1.407-1.096 1.407-.641 0-1.097-.6-1.097-1.393 0-.689.336-1.407 1.111-1.407ZM56.297 12.977c.194.014.611.045 1.015.045.709 0 1.903-.119 1.903-1.07 0-.525-.389-.825-.918-.899v-.015c.41-.09.753-.367.753-.816 0-.809-1-.906-1.603-.906a7.77 7.77 0 0 0-1.149.081v3.581l-.001-.001Zm.626-3.176c.156-.015.291-.03.508-.03.657 0 .97.172.97.533 0 .426-.5.57-.985.57h-.493V9.8Zm-.008 1.505h.478c.627 0 1.149.113 1.149.637s-.657.629-1.097.629c-.208 0-.343-.008-.53-.03v-1.236ZM60.027 9.352v3.61c.268.03.605.052.97.052.477 0 1.058-.082 1.453-.42.231-.194.373-.457.373-.839 0-.891-.784-1.213-1.56-1.213-.239 0-.447.015-.589.046V9.352h-.649.002Zm.649 1.7c.135-.023.297-.038.484-.038.493 0 1.015.18 1.015.764 0 .562-.544.771-1.044.771a3.71 3.71 0 0 1-.455-.03v-1.467Zm2.604-1.7v3.625h.649V9.352h-.65ZM64.988 9.352v3.625h.753c.388-.637.784-1.333 1.127-1.895.208-.367.366-.66.597-1.123h.022c-.029.585-.045.892-.045 1.483v1.535h.626V9.352h-.767l-1.127 1.873c-.24.42-.366.674-.583 1.115l-.022-.008c.029-.516.037-.877.037-1.453V9.35h-.62l.002.002Zm.567-1.476c.03.516.283.929.94.929.575 0 .963-.315.992-.93h-.47c-.037.33-.186.57-.507.57-.298 0-.455-.246-.478-.57h-.478.001ZM70.703 9.352v3.625h2.762l.03 1.154h.508l.037-1.644-.375-.006V9.35h-.649v3.11h-1.664V9.35h-.649ZM77.694 11.285c.008-.067.023-.173.023-.307 0-.666-.314-1.708-1.492-1.708-1.052 0-1.693.86-1.693 1.955 0 1.094.663 1.827 1.776 1.827.574 0 .97-.12 1.2-.225l-.112-.472c-.246.104-.53.187-1 .187-.657 0-1.223-.367-1.238-1.258h2.537-.001Zm-2.53-.472c.053-.457.344-1.071 1.008-1.071.738 0 .917.651.91 1.071h-1.917ZM78.514 9.352v3.625h.649v-1.64h1.716v1.64h.649V9.352h-.65v1.461h-1.715V9.352h-.65ZM82.118 9.352v.524h1.126v3.1h.649v-3.1h1.127v-.524h-2.902ZM85.594 14.46h.649v-1.97h.014c.217.36.635.57 1.112.57.85 0 1.64-.644 1.64-1.948 0-1.1-.656-1.842-1.528-1.842-.59 0-1.015.263-1.284.704h-.014l-.03-.622h-.589c.015.344.03.718.03 1.183v3.924Zm.649-3.581c0-.09.023-.188.045-.27.127-.495.545-.816.992-.816.695 0 1.075.622 1.075 1.348 0 .832-.403 1.401-1.096 1.401-.47 0-.865-.315-.984-.77a1.498 1.498 0 0 1-.03-.27v-.622l-.002-.001Z" fill="#74271D"/></svg>