<svg width="126" height="62" fill="none" xmlns="http://www.w3.org/2000/svg"><path fill-rule="evenodd" clip-rule="evenodd" d="M57.042 61.847c-3.68-9.876-7.779-30.66 2.564-35.032 14.79-6.251 14.807 26.271-4.36 12.626.88 5.01 5.38 6.806 11.5 6.059 12.53-1.655 11.12-23.439-4.761-22.786-18.237.749-14.605 35.081-4.943 39.133Z" fill="#fff"/><path fill-rule="evenodd" clip-rule="evenodd" d="M98.969 39.248c-2.79 1.35-2.292 1.587-5.49 2.935-10.756 3.315-15.406-7.877-10.017-13.452 9.148-9.464 20.058 6.588 4.492 7.261l-4.014.649c5.54 3.267 16.274 1.422 15.084-7.176-1.006-7.264-11.358-8.877-16.732-4.35-5.463 4.601-6.005 13.856-.3 18.231 5.659 4.34 15.996 2.625 16.977-4.097ZM32.516 2.084c4.982 1.855 9.518 5.752 12.366 10.226 2.362 3.71 3.697 7.993 3.422 12.422-1.162 18.682-16.997 25.333-33.361 24.934l-1.426-.034-.933-1.086C6.9 41.932.74 33.816.087 24.764c-.56-7.74 1.533-15.499 7.86-20.408C15-1.116 24.494-.904 32.518 2.086l-.002-.002Z" fill="#fff"/><path fill-rule="evenodd" clip-rule="evenodd" d="M31.398 5.113C38.37 7.71 45.645 15.666 45.093 24.529 43.763 45.903 21.45 46.591 15.02 46.436c-3.782-4.4-11.08-12.96-11.725-21.907C2.025 6.964 15.983-.63 31.398 5.113Z" fill="#E84F22"/><path fill-rule="evenodd" clip-rule="evenodd" d="M15.429 5.873c2.14 6.56 20.696 15.07 27.151 12.838C38.591 8.225 24.628 2.78 15.43 5.873Z" fill="#FFCBA1"/><path fill-rule="evenodd" clip-rule="evenodd" d="m113.651 37.895-.045.07-.744 1.14a49.02 49.02 0 0 1-.631.943c-.154.224-.309.452-.486.658-.991 1.156-2.006 2.294-3.217 3.223-1.337 1.026-2.85 1.741-4.558 1.783a6.026 6.026 0 0 1-.614-.021 4.854 4.854 0 0 1-.468-.051c-.146-.026-.348-.074-.363-.257-.008-.09.043-.167.115-.214a24.837 24.837 0 0 0 6.477-6.125 29.089 29.089 0 0 0 1.801-2.781c.362-.634.699-1.279 1.046-1.921-.345-.642-.682-1.288-1.046-1.922a29.089 29.089 0 0 0-1.801-2.781 24.868 24.868 0 0 0-6.477-6.125.23.23 0 0 1-.115-.214c.015-.183.217-.23.363-.257a3.89 3.89 0 0 1 .468-.051c.203-.013.41-.025.614-.02 1.708.039 3.219.754 4.558 1.782 1.209.929 2.226 2.069 3.217 3.223.177.206.332.434.486.657.215.313.424.628.631.944l.744 1.14.045.07.045-.07.744-1.14c.208-.316.417-.631.631-.944.155-.223.309-.451.486-.657.991-1.156 2.006-2.294 3.218-3.223 1.337-1.027 2.849-1.741 4.558-1.783.205-.006.41.006.614.02.156.012.312.026.467.052.147.026.348.074.363.257.008.089-.043.166-.114.214a24.84 24.84 0 0 0-6.478 6.125 29.089 29.089 0 0 0-1.801 2.781c-.361.634-.699 1.279-1.045 1.922.345.64.682 1.287 1.045 1.92.55.96 1.145 1.892 1.801 2.782a24.872 24.872 0 0 0 6.478 6.125.232.232 0 0 1 .114.214c-.015.183-.216.23-.363.257a3.896 3.896 0 0 1-.467.051 7.423 7.423 0 0 1-.614.02c-1.709-.039-3.219-.754-4.558-1.782-1.21-.929-2.227-2.07-3.218-3.223-.177-.206-.331-.434-.486-.658a60.497 60.497 0 0 1-.631-.943l-.744-1.14-.045-.07Z" fill="#fff"/><path d="M53.28 11.843v.739h1.587v4.374h.915v-4.374h1.59v-.74H53.28ZM60.203 11.727c-1.41 0-2.526 1.004-2.526 2.716 0 1.617 1.063 2.63 2.441 2.63 1.232 0 2.536-.824 2.536-2.715 0-1.564-.99-2.63-2.453-2.63h.002Zm-.02.698c1.094 0 1.525 1.099 1.525 1.965 0 1.151-.663 1.985-1.546 1.985-.904 0-1.547-.845-1.547-1.964 0-.972.473-1.986 1.567-1.986ZM63.823 19.047h.916V16.27h.02c.305.507.895.804 1.567.804 1.2 0 2.315-.908 2.315-2.748 0-1.552-.926-2.598-2.156-2.598-.831 0-1.432.37-1.81.993h-.021l-.042-.877h-.83c.02.486.041 1.013.041 1.67v5.534Zm.916-5.05c0-.127.032-.265.064-.38.179-.698.768-1.152 1.4-1.152.979 0 1.515.877 1.515 1.902 0 1.172-.568 1.976-1.546 1.976a1.43 1.43 0 0 1-1.388-1.087 2.115 2.115 0 0 1-.042-.38v-.878l-.003-.002ZM69.789 11.843v5.113h.915v-4.363h2.211v-.75H69.79ZM75.808 11.727c-1.41 0-2.526 1.004-2.526 2.716 0 1.617 1.063 2.63 2.442 2.63 1.231 0 2.535-.824 2.535-2.715 0-1.564-.989-2.63-2.453-2.63h.002Zm-.02.698c1.094 0 1.525 1.099 1.525 1.965 0 1.151-.663 1.985-1.546 1.985-.904 0-1.546-.845-1.546-1.964 0-.972.472-1.986 1.567-1.986ZM79.408 16.956c.273.02.862.064 1.431.064 1 0 2.684-.168 2.684-1.51 0-.74-.548-1.164-1.294-1.268v-.02c.579-.127 1.063-.518 1.063-1.152 0-1.14-1.411-1.278-2.263-1.278-.599 0-1.261.053-1.62.115v5.05l-.001-.001Zm.883-4.48c.22-.02.41-.041.716-.041.927 0 1.367.242 1.367.75 0 .602-.704.804-1.388.804h-.695v-1.513ZM80.28 14.6h.674c.884 0 1.62.159 1.62.898 0 .74-.927.887-1.546.887-.294 0-.485-.011-.748-.042V14.6ZM84.669 11.843v5.092c.378.042.853.074 1.367.074.674 0 1.494-.116 2.051-.592.326-.274.526-.645.526-1.184 0-1.257-1.106-1.711-2.2-1.711-.337 0-.631.02-.83.064v-1.743h-.916.002Zm.915 2.397c.19-.032.42-.053.684-.053.695 0 1.431.254 1.431 1.078 0 .793-.768 1.088-1.473 1.088a5.22 5.22 0 0 1-.642-.042v-2.07Zm3.673-2.397v5.113h.915v-5.113h-.915ZM91.666 11.843v5.113h1.063c.548-.898 1.105-1.88 1.59-2.672.293-.518.515-.93.841-1.585h.032c-.041.825-.064 1.258-.064 2.092v2.165h.884v-5.113h-1.084l-1.59 2.642c-.336.591-.515.95-.82 1.573l-.032-.012c.041-.728.052-1.236.052-2.05v-2.155h-.874l.002.002Zm.8-2.082c.042.728.4 1.31 1.327 1.31.81 0 1.358-.444 1.4-1.31h-.664c-.052.465-.263.804-.715.804-.42 0-.643-.348-.675-.804h-.674.002ZM99.728 11.843v5.113h3.895l.041 1.628h.718l.053-2.318-.529-.01v-4.413h-.916v4.385h-2.347v-4.385h-.915ZM109.588 14.57c.012-.095.032-.245.032-.434 0-.94-.442-2.409-2.103-2.409-1.485 0-2.389 1.214-2.389 2.757 0 1.543.936 2.578 2.505 2.578.81 0 1.368-.169 1.694-.318l-.159-.666c-.346.148-.747.265-1.41.265-.927 0-1.726-.518-1.746-1.775h3.578l-.002.001Zm-3.567-.666c.073-.645.484-1.511 1.42-1.511 1.042 0 1.294.919 1.285 1.51h-2.705ZM110.745 11.843v5.113h.915v-2.313h2.421v2.313h.915v-5.113h-.915v2.06h-2.421v-2.06h-.915ZM115.829 11.843v.739h1.587v4.374h.916v-4.374h1.59v-.74h-4.093ZM120.731 19.047h.916V16.27h.021c.305.507.894.804 1.567.804 1.199 0 2.315-.908 2.315-2.748 0-1.552-.927-2.598-2.157-2.598-.831 0-1.432.37-1.81.993h-.021l-.041-.877h-.831c.021.486.041 1.013.041 1.67v5.534Zm.916-5.05c0-.127.032-.265.064-.38.179-.698.768-1.152 1.399-1.152.98 0 1.517.877 1.517 1.902 0 1.172-.569 1.976-1.547 1.976a1.43 1.43 0 0 1-1.388-1.087 2.09 2.09 0 0 1-.041-.38v-.878l-.004-.002Z" fill="#fff"/></svg>