<svg xmlns="http://www.w3.org/2000/svg" fill="none" viewBox="0.04 0.5 15.92 12"><path d="M13.804 8.19c-.077-.5-.489-.89-1.019-1.007-2.062-.453-2.578-1.566-2.665-2.8C9.754 4.319 9.104 4.25 8 4.25s-1.755.069-2.12.133c-.088 1.234-.604 2.347-2.666 2.8-.53.117-.942.506-1.02 1.007l-.397 2.581c-.14.91.572 1.729 1.563 1.729h9.28c.99 0 1.702-.82 1.562-1.729l-.398-2.581ZM8 10.619c-1.116 0-2.021-.84-2.021-1.875 0-1.035.905-1.875 2.02-1.875 1.117 0 2.021.84 2.021 1.875 0 1.035-.905 1.875-2.02 1.875ZM15.96 3.5c-.02-1.125-3.074-3-7.96-3C3.112.5.058 2.375.04 3.5.02 4.625.056 6.089 2.068 5.845 4.42 5.56 4.276 4.79 4.276 3.688c0-.768 1.913-.953 3.724-.953 1.81 0 3.723.185 3.723.953 0 1.101-.144 1.871 2.208 2.157 2.01.244 2.047-1.22 2.029-2.345Z" fill="url(#a)"/><defs><linearGradient id="a" x1=".037" y1="6.5" x2="15.962" y2="6.5" gradientUnits="userSpaceOnUse"><stop stop-color="#854E2C"/><stop offset="1" stop-color="#AB4B10"/></linearGradient></defs></svg>