<?xml version="1.0" standalone="no"?>
<!DOCTYPE svg PUBLIC "-//W3C//DTD SVG 20010904//EN"
 "http://www.w3.org/TR/2001/REC-SVG-20010904/DTD/svg10.dtd">
<svg version="1.0" xmlns="http://www.w3.org/2000/svg"
 width="592.000000pt" height="592.000000pt" viewBox="0 0 592.000000 592.000000"
 preserveAspectRatio="xMidYMid meet">
<metadata>
Created by potrace 1.14, written by Peter Selinger 2001-2017
</metadata>
<g transform="translate(0.000000,592.000000) scale(0.100000,-0.100000)"
fill="#000000" stroke="none">
<path d="M2380 5760 c-775 -60 -1420 -425 -1813 -1025 -388 -594 -514 -1505
-312 -2270 171 -652 562 -1304 1296 -2161 l138 -161 77 -6 c112 -10 341 -8
559 3 1791 96 2963 938 3249 2333 62 302 82 646 51 887 -70 556 -350 1090
-806 1535 -168 164 -266 245 -439 360 -273 182 -572 310 -945 404 -342 86
-747 124 -1055 101z m535 -589 c477 -72 928 -260 1308 -544 146 -109 395 -354
490 -482 89 -121 181 -276 233 -396 24 -55 44 -101 44 -103 0 -9 -139 -35
-220 -41 -177 -14 -484 33 -781 119 -264 77 -502 170 -784 305 -636 307 -1111
681 -1259 991 -20 41 -33 77 -28 81 22 21 269 74 415 89 127 14 434 4 582 -19z"/>
</g>
</svg>
