<svg width="16" height="15" viewBox="0 0 16 15" fill="none" xmlns="http://www.w3.org/2000/svg">
<path d="M13.8043 9.18975C13.7275 8.6895 13.3155 8.2995 12.7851 8.18325C10.7235 7.73025 10.2067 6.61725 10.1195 5.38275C9.75393 5.319 9.10353 5.25 7.99953 5.25C6.89553 5.25 6.24513 5.319 5.87953 5.38275C5.79233 6.61725 5.27553 7.73025 3.21393 8.18325C2.68353 8.30025 2.27153 8.6895 2.19473 9.18975L1.79713 11.7712C1.65713 12.6802 2.36913 13.5 3.35953 13.5H12.6395C13.6291 13.5 14.3419 12.6802 14.2019 11.7712L13.8043 9.18975ZM7.99953 11.619C6.88353 11.619 5.97873 10.779 5.97873 9.744C5.97873 8.709 6.88353 7.869 7.99953 7.869C9.11553 7.869 10.0203 8.709 10.0203 9.744C10.0203 10.779 9.11473 11.619 7.99953 11.619ZM15.9595 4.5C15.9403 3.375 12.8859 1.50075 7.99953 1.5C3.11233 1.50075 0.0579346 3.375 0.0395346 4.5C0.0211346 5.625 0.0563347 7.089 2.06753 6.84525C4.42033 6.5595 4.27553 5.78925 4.27553 4.68825C4.27553 3.92025 6.18913 3.735 7.99953 3.735C9.80993 3.735 11.7227 3.92025 11.7235 4.68825C11.7235 5.78925 11.5787 6.5595 13.9315 6.84525C15.9419 7.089 15.9779 5.625 15.9595 4.5Z" fill="black"/>
</svg>
