<svg width="23" height="22" viewBox="0 0 23 22" fill="none" xmlns="http://www.w3.org/2000/svg">
<path d="M11.5 22C17.8513 22 23 17.0751 23 11C23 4.92487 17.8513 0 11.5 0C5.14873 0 0 4.92487 0 11C0 17.0751 5.14873 22 11.5 22Z" fill="white"/>
<path fill-rule="evenodd" clip-rule="evenodd" d="M11.0655 15.8245H11.9681C11.9681 15.8245 12.2408 15.7959 12.38 15.6524C12.5081 15.5206 12.504 15.2731 12.504 15.2731C12.504 15.2731 12.4864 14.1147 13.0485 13.9441C13.6026 13.776 14.3141 15.0637 15.0683 15.5588C15.6386 15.9335 16.072 15.8514 16.072 15.8514L18.0886 15.8245C18.0886 15.8245 19.1435 15.7624 18.6433 14.969C18.6023 14.9041 18.352 14.3821 17.1439 13.3095C15.8795 12.1869 16.0488 12.3685 17.572 10.4267C18.4996 9.24409 18.8704 8.5221 18.7546 8.21287C18.6441 7.91835 17.9619 7.9962 17.9619 7.9962L15.6913 8.00973C15.6913 8.00973 15.523 7.98777 15.3982 8.05914C15.2762 8.12914 15.1977 8.29229 15.1977 8.29229C15.1977 8.29229 14.8383 9.20742 14.359 9.98568C13.348 11.6279 12.9437 11.7146 12.7785 11.6126C12.3941 11.3749 12.4901 10.6579 12.4901 10.1484C12.4901 8.557 12.7424 7.89345 11.9987 7.72168C11.7519 7.66462 11.5702 7.62697 10.939 7.62089C10.1289 7.61285 9.44317 7.62324 9.0549 7.80521C8.7966 7.9262 8.59734 8.19581 8.7187 8.2113C8.86876 8.23052 9.20865 8.29895 9.38884 8.53367C9.62151 8.83642 9.61331 9.51645 9.61331 9.51645C9.61331 9.51645 9.74697 11.3898 9.3011 11.6226C8.99504 11.7822 8.5752 11.4563 7.67382 9.96646C7.21196 9.2033 6.86326 8.35974 6.86326 8.35974C6.86326 8.35974 6.79602 8.20209 6.6761 8.11777C6.53055 8.01561 6.32719 7.98306 6.32719 7.98306L4.16958 7.99659C4.16958 7.99659 3.84568 8.00522 3.72679 8.13993C3.62101 8.25974 3.71838 8.50759 3.71838 8.50759C3.71838 8.50759 5.40757 12.2877 7.3202 14.1927C9.07396 15.9392 11.0655 15.8245 11.0655 15.8245Z" fill="#F47436"/>
</svg>
