<svg xmlns="http://www.w3.org/2000/svg" fill="none" viewBox="0 0.02 16 14.97">
<path d="M8 0.0152588C3.5888 0.0152588 0 3.37976 0 7.51526C0 11.6508 3.5888 14.985 8 14.985C12.4112 14.985 16 11.6508 16 7.51526C16 3.37976 12.4112 0.0152588 8 0.0152588ZM8.53333 7.73476C8.53333 8.01076 8.2944 8.23476 8 8.23476H3.73333C3.43893 8.23476 3.2 8.01076 3.2 7.73476C3.2 7.45876 3.43893 7.23476 3.73333 7.23476H7.46667V1.73476C7.46667 1.45876 7.7056 1.23476 8 1.23476C8.2944 1.23476 8.53333 1.45876 8.53333 1.73476V7.73476Z" fill="#FF7A00"/>
</svg>